<svg width="63" height="44" viewBox="0 0 63 44" fill="none" xmlns="http://www.w3.org/2000/svg">
<path d="M60.6602 2.19336C56.8721 0.604492 53.0811 0 49.292 0C37.2617 0 25.2354 6.08789 13.208 6.08789C10.1914 6.08789 7.17676 5.70508 4.16016 4.74805C3.83344 4.64341 3.49248 4.59005 3.14941 4.58984C1.46484 4.58984 0 5.89062 0 7.69629V38.6787C0 39.9121 0.706055 41.0811 1.83984 41.5557C5.62793 43.1455 9.41895 43.75 13.208 43.75C25.2363 43.75 37.2646 37.6611 49.293 37.6611C52.3096 37.6611 55.3242 38.0439 58.3408 39.001C58.6676 39.1054 59.0085 39.1591 59.3516 39.1602C61.0352 39.1602 62.5 37.8584 62.5 36.0527V5.07129C62.5 3.83691 61.7939 2.66895 60.6602 2.19336Z" fill="black"/>
<path d="M44.125 17.8125L45.9531 9.98438C46 9.79688 45.9062 9.5625 45.7188 9.46875C45.4844 9.32813 45.2031 9.42188 45.0625 9.65625L41.0781 16.875C41.0781 16.875 41.0781 16.9219 41.125 16.9219C30.0156 17.1563 26.6406 27.375 23.6406 27.375C22.75 27.375 22 26.625 22 25.7344V21.1406L24.2969 19.6875C24.6719 19.4531 25 18.8906 25 18.4219V14.6719C25 14.0625 24.2969 13.6875 23.8281 14.0156L20.5 16.2656L17.125 14.0156C16.6562 13.6875 16 14.0625 16 14.6719V18.4219C16 18.9375 16.2344 19.4063 16.6562 19.6875L19 21.1406V25.7344C19 28.3125 21.0625 30.375 23.6406 30.375H43C44.6406 30.375 46 29.0625 46 27.375V21.375C46 19.9219 45.25 18.6094 44.125 17.8125ZM36.25 24.375C35.8281 24.375 35.5 24.0469 35.5 23.625C35.5 23.25 35.8281 22.875 36.25 22.875C36.625 22.875 37 23.25 37 23.625C37 24.0469 36.625 24.375 36.25 24.375Z" fill="white"/>
</svg>
